<svg width="107" height="208" viewBox="0 0 107 208" fill="none" xmlns="http://www.w3.org/2000/svg">
<rect x="62.0276" y="58.0256" width="52.0198" height="17.9856" transform="rotate(-90.0255 62.0276 58.0256)" fill="black"/>
<rect x="62.0222" y="197.503" width="55.496" height="17.9856" transform="rotate(-90.0229 62.0222 197.503)" fill="black"/>
<rect x="30.0266" y="62.5034" width="56.2406" height="17.9856" transform="rotate(-90.0229 30.0266 62.5034)" fill="black"/>
<rect x="30.022" y="197.02" width="55.0128" height="17.9856" transform="rotate(-90.0229 30.022 197.02)" fill="black"/>
<path d="M94.8594 142.664C90.1719 146.695 84.9219 149.789 79.1094 151.945C73.2969 154.102 67.2734 155.18 61.0391 155.18C56.2578 155.18 51.6406 154.547 47.1875 153.281C42.7812 152.062 38.6328 150.328 34.7422 148.078C30.8984 145.781 27.3828 143.039 24.1953 139.852C21.0078 136.664 18.2656 133.148 15.9688 129.305C13.7188 125.414 11.9609 121.266 10.6953 116.859C9.47656 112.406 8.86719 107.789 8.86719 103.008C8.86719 98.2266 9.47656 93.6094 10.6953 89.1562C11.9609 84.7031 13.7188 80.5547 15.9688 76.7109C18.2656 72.8203 21.0078 69.2812 24.1953 66.0938C27.3828 62.9063 30.8984 60.1875 34.7422 57.9375C38.6328 55.6406 42.7812 53.8828 47.1875 52.6641C51.6406 51.3984 56.2578 50.7656 61.0391 50.7656C67.2734 50.7656 73.2969 51.8437 79.1094 54C84.9219 56.1094 90.1719 59.2031 94.8594 63.2812L84.1719 80.8594C81.2188 77.6719 77.7266 75.2344 73.6953 73.5469C69.6641 71.8125 65.4453 70.9453 61.0391 70.9453C56.5859 70.9453 52.4141 71.7891 48.5234 73.4766C44.6328 75.1641 41.2344 77.4609 38.3281 80.3672C35.4219 83.2266 33.125 86.625 31.4375 90.5625C29.75 94.4531 28.9062 98.6016 28.9062 103.008C28.9062 107.414 29.75 111.562 31.4375 115.453C33.125 119.297 35.4219 122.672 38.3281 125.578C41.2344 128.484 44.6328 130.781 48.5234 132.469C52.4141 134.156 56.5859 135 61.0391 135C65.4453 135 69.6641 134.156 73.6953 132.469C77.7266 130.734 81.2188 128.273 84.1719 125.086L94.8594 142.664Z" fill="black"/>
</svg>
