<svg width="539" height="208" viewBox="0 0 539 208" fill="none" xmlns="http://www.w3.org/2000/svg">
<g clip-path="url(#clip0_9_4)">
<rect x="62.0276" y="58.0256" width="52.0198" height="17.9856" transform="rotate(-90.0255 62.0276 58.0256)" fill="white"/>
<rect x="62.0222" y="197.503" width="55.496" height="17.9856" transform="rotate(-90.0229 62.0222 197.503)" fill="white"/>
<rect x="30.0266" y="62.5034" width="56.2406" height="17.9856" transform="rotate(-90.0229 30.0266 62.5034)" fill="white"/>
<rect x="30.022" y="197.02" width="55.0128" height="17.9856" transform="rotate(-90.0229 30.022 197.02)" fill="white"/>
<path d="M94.8594 142.664C90.1719 146.695 84.9219 149.789 79.1094 151.945C73.2969 154.102 67.2734 155.18 61.0391 155.18C56.2578 155.18 51.6406 154.547 47.1875 153.281C42.7812 152.062 38.6328 150.328 34.7422 148.078C30.8984 145.781 27.3828 143.039 24.1953 139.852C21.0078 136.664 18.2656 133.148 15.9688 129.305C13.7188 125.414 11.9609 121.266 10.6953 116.859C9.47656 112.406 8.86719 107.789 8.86719 103.008C8.86719 98.2266 9.47656 93.6094 10.6953 89.1562C11.9609 84.7031 13.7188 80.5547 15.9688 76.7109C18.2656 72.8203 21.0078 69.2812 24.1953 66.0938C27.3828 62.9063 30.8984 60.1875 34.7422 57.9375C38.6328 55.6406 42.7812 53.8828 47.1875 52.6641C51.6406 51.3984 56.2578 50.7656 61.0391 50.7656C67.2734 50.7656 73.2969 51.8437 79.1094 54C84.9219 56.1094 90.1719 59.2031 94.8594 63.2812L84.1719 80.8594C81.2188 77.6719 77.7266 75.2344 73.6953 73.5469C69.6641 71.8125 65.4453 70.9453 61.0391 70.9453C56.5859 70.9453 52.4141 71.7891 48.5234 73.4766C44.6328 75.1641 41.2344 77.4609 38.3281 80.3672C35.4219 83.2266 33.125 86.625 31.4375 90.5625C29.75 94.4531 28.9062 98.6016 28.9062 103.008C28.9062 107.414 29.75 111.562 31.4375 115.453C33.125 119.297 35.4219 122.672 38.3281 125.578C41.2344 128.484 44.6328 130.781 48.5234 132.469C52.4141 134.156 56.5859 135 61.0391 135C65.4453 135 69.6641 134.156 73.6953 132.469C77.7266 130.734 81.2188 128.273 84.1719 125.086L94.8594 142.664Z" fill="white"/>
<path d="M181.227 153H176.586L169.133 142.664C167.305 144.305 165.359 145.852 163.297 147.305C161.281 148.711 159.148 149.953 156.898 151.031C154.648 152.062 152.328 152.883 149.938 153.492C147.594 154.102 145.203 154.406 142.766 154.406C137.469 154.406 132.477 153.516 127.789 151.734C123.148 149.953 119.07 147.375 115.555 144C112.086 140.578 109.344 136.406 107.328 131.484C105.312 126.562 104.305 120.961 104.305 114.68C104.305 108.82 105.312 103.453 107.328 98.5781C109.344 93.6562 112.086 89.4375 115.555 85.9219C119.07 82.4062 123.148 79.6875 127.789 77.7656C132.477 75.7969 137.469 74.8125 142.766 74.8125C145.203 74.8125 147.617 75.1172 150.008 75.7266C152.398 76.3359 154.719 77.1797 156.969 78.2578C159.219 79.3359 161.352 80.6016 163.367 82.0547C165.43 83.5078 167.352 85.0781 169.133 86.7656L176.586 77.8359H181.227V153ZM161.891 114.68C161.891 112.055 161.375 109.523 160.344 107.086C159.359 104.602 158 102.422 156.266 100.547C154.531 98.625 152.492 97.1016 150.148 95.9766C147.852 94.8047 145.391 94.2188 142.766 94.2188C140.141 94.2188 137.656 94.6641 135.312 95.5547C133.016 96.4453 131 97.7578 129.266 99.4922C127.578 101.227 126.242 103.383 125.258 105.961C124.273 108.492 123.781 111.398 123.781 114.68C123.781 117.961 124.273 120.891 125.258 123.469C126.242 126 127.578 128.133 129.266 129.867C131 131.602 133.016 132.914 135.312 133.805C137.656 134.695 140.141 135.141 142.766 135.141C145.391 135.141 147.852 134.578 150.148 133.453C152.492 132.281 154.531 130.758 156.266 128.883C158 126.961 159.359 124.781 160.344 122.344C161.375 119.859 161.891 117.305 161.891 114.68ZM268.695 153H264.055L256.602 142.664C254.773 144.305 252.828 145.852 250.766 147.305C248.75 148.711 246.617 149.953 244.367 151.031C242.117 152.062 239.797 152.883 237.406 153.492C235.062 154.102 232.672 154.406 230.234 154.406C224.938 154.406 219.945 153.422 215.258 151.453C210.617 149.438 206.539 146.672 203.023 143.156C199.555 139.594 196.812 135.398 194.797 130.57C192.781 125.695 191.773 120.398 191.773 114.68C191.773 109.008 192.781 103.734 194.797 98.8594C196.812 93.9844 199.555 89.7656 203.023 86.2031C206.539 82.6406 210.617 79.8516 215.258 77.8359C219.945 75.8203 224.938 74.8125 230.234 74.8125C231.922 74.8125 233.656 74.9531 235.438 75.2344C237.266 75.5156 239.023 75.9844 240.711 76.6406C242.445 77.25 244.062 78.0703 245.562 79.1016C247.062 80.1328 248.328 81.3984 249.359 82.8984V47.7422H268.695V153ZM249.359 114.68C249.359 112.055 248.844 109.523 247.812 107.086C246.828 104.602 245.469 102.422 243.734 100.547C242 98.625 239.961 97.1016 237.617 95.9766C235.32 94.8047 232.859 94.2188 230.234 94.2188C227.609 94.2188 225.125 94.6875 222.781 95.625C220.484 96.5625 218.469 97.9219 216.734 99.7031C215.047 101.438 213.711 103.57 212.727 106.102C211.742 108.633 211.25 111.492 211.25 114.68C211.25 117.445 211.742 120.07 212.727 122.555C213.711 125.039 215.047 127.219 216.734 129.094C218.469 130.969 220.484 132.445 222.781 133.523C225.125 134.602 227.609 135.141 230.234 135.141C232.859 135.141 235.32 134.578 237.617 133.453C239.961 132.281 242 130.758 243.734 128.883C245.469 126.961 246.828 124.781 247.812 122.344C248.844 119.859 249.359 117.305 249.359 114.68ZM313.344 134.578C314.094 134.812 314.844 134.977 315.594 135.07C316.344 135.117 317.094 135.141 317.844 135.141C319.719 135.141 321.523 134.883 323.258 134.367C324.992 133.852 326.609 133.125 328.109 132.188C329.656 131.203 331.016 130.031 332.188 128.672C333.406 127.266 334.391 125.719 335.141 124.031L349.203 138.164C347.422 140.695 345.359 142.969 343.016 144.984C340.719 147 338.211 148.711 335.492 150.117C332.82 151.523 329.984 152.578 326.984 153.281C324.031 154.031 320.984 154.406 317.844 154.406C312.547 154.406 307.555 153.422 302.867 151.453C298.227 149.484 294.148 146.742 290.633 143.227C287.164 139.711 284.422 135.539 282.406 130.711C280.391 125.836 279.383 120.492 279.383 114.68C279.383 108.727 280.391 103.289 282.406 98.3672C284.422 93.4453 287.164 89.25 290.633 85.7812C294.148 82.3125 298.227 79.6172 302.867 77.6953C307.555 75.7734 312.547 74.8125 317.844 74.8125C320.984 74.8125 324.055 75.1875 327.055 75.9375C330.055 76.6875 332.891 77.7656 335.562 79.1719C338.281 80.5781 340.812 82.3125 343.156 84.375C345.5 86.3906 347.562 88.6641 349.344 91.1953L313.344 134.578ZM323.188 94.9922C322.297 94.6641 321.406 94.4531 320.516 94.3594C319.672 94.2656 318.781 94.2188 317.844 94.2188C315.219 94.2188 312.734 94.7109 310.391 95.6953C308.094 96.6328 306.078 97.9922 304.344 99.7734C302.656 101.555 301.32 103.711 300.336 106.242C299.352 108.727 298.859 111.539 298.859 114.68C298.859 115.383 298.883 116.18 298.93 117.07C299.023 117.961 299.141 118.875 299.281 119.812C299.469 120.703 299.68 121.57 299.914 122.414C300.148 123.258 300.453 124.008 300.828 124.664L323.188 94.9922ZM381.688 57.2344C381.688 59.0156 381.336 60.6797 380.633 62.2266C379.977 63.7734 379.062 65.1328 377.891 66.3047C376.719 67.4297 375.336 68.3438 373.742 69.0469C372.195 69.7031 370.531 70.0312 368.75 70.0312C366.969 70.0312 365.281 69.7031 363.688 69.0469C362.141 68.3438 360.781 67.4297 359.609 66.3047C358.484 65.1328 357.57 63.7734 356.867 62.2266C356.211 60.6797 355.883 59.0156 355.883 57.2344C355.883 55.5 356.211 53.8594 356.867 52.3125C357.57 50.7187 358.484 49.3594 359.609 48.2344C360.781 47.0625 362.141 46.1484 363.688 45.4922C365.281 44.7891 366.969 44.4375 368.75 44.4375C370.531 44.4375 372.195 44.7891 373.742 45.4922C375.336 46.1484 376.719 47.0625 377.891 48.2344C379.062 49.3594 379.977 50.7187 380.633 52.3125C381.336 53.8594 381.688 55.5 381.688 57.2344ZM378.383 153H359.047V77.6953H378.383V153ZM412.273 153H393.078V77.6953H397.719L404.047 86.625C407.141 83.8125 410.656 81.6562 414.594 80.1562C418.531 78.6094 422.609 77.8359 426.828 77.8359H443.773V96.9609H426.828C424.812 96.9609 422.914 97.3359 421.133 98.0859C419.352 98.8359 417.805 99.8672 416.492 101.18C415.18 102.492 414.148 104.039 413.398 105.82C412.648 107.602 412.273 109.5 412.273 111.516V153ZM524.211 153H519.57L512.117 142.664C510.289 144.305 508.344 145.852 506.281 147.305C504.266 148.711 502.133 149.953 499.883 151.031C497.633 152.062 495.312 152.883 492.922 153.492C490.578 154.102 488.188 154.406 485.75 154.406C480.453 154.406 475.461 153.516 470.773 151.734C466.133 149.953 462.055 147.375 458.539 144C455.07 140.578 452.328 136.406 450.312 131.484C448.297 126.562 447.289 120.961 447.289 114.68C447.289 108.82 448.297 103.453 450.312 98.5781C452.328 93.6562 455.07 89.4375 458.539 85.9219C462.055 82.4062 466.133 79.6875 470.773 77.7656C475.461 75.7969 480.453 74.8125 485.75 74.8125C488.188 74.8125 490.602 75.1172 492.992 75.7266C495.383 76.3359 497.703 77.1797 499.953 78.2578C502.203 79.3359 504.336 80.6016 506.352 82.0547C508.414 83.5078 510.336 85.0781 512.117 86.7656L519.57 77.8359H524.211V153ZM504.875 114.68C504.875 112.055 504.359 109.523 503.328 107.086C502.344 104.602 500.984 102.422 499.25 100.547C497.516 98.625 495.477 97.1016 493.133 95.9766C490.836 94.8047 488.375 94.2188 485.75 94.2188C483.125 94.2188 480.641 94.6641 478.297 95.5547C476 96.4453 473.984 97.7578 472.25 99.4922C470.562 101.227 469.227 103.383 468.242 105.961C467.258 108.492 466.766 111.398 466.766 114.68C466.766 117.961 467.258 120.891 468.242 123.469C469.227 126 470.562 128.133 472.25 129.867C473.984 131.602 476 132.914 478.297 133.805C480.641 134.695 483.125 135.141 485.75 135.141C488.375 135.141 490.836 134.578 493.133 133.453C495.477 132.281 497.516 130.758 499.25 128.883C500.984 126.961 502.344 124.781 503.328 122.344C504.359 119.859 504.875 117.305 504.875 114.68Z" fill="white"/>
</g>
<defs>
<clipPath id="clip0_9_4">
<rect width="539" height="208" fill="white"/>
</clipPath>
</defs>
</svg>
