<svg width="209" height="108" viewBox="0 0 209 108" fill="none" xmlns="http://www.w3.org/2000/svg">
<g clip-path="url(#clip0_5_8)">
<rect width="52.0198" height="17.9856" transform="matrix(1 0.000445818 0.000445818 -1 150.474 45.4724)" fill="white"/>
<rect width="55.496" height="17.9856" transform="matrix(1 0.00040049 0.00040049 -1 10.9968 45.4778)" fill="white"/>
<rect width="56.2406" height="17.9856" transform="matrix(1 0.00040049 0.00040049 -1 145.997 77.4734)" fill="white"/>
<rect width="55.0128" height="17.9856" transform="matrix(1 0.00040049 0.00040049 -1 11.48 77.478)" fill="white"/>
<path d="M65.8359 12.6406C61.8047 17.3281 58.7109 22.5781 56.5547 28.3906C54.3984 34.2031 53.3203 40.2266 53.3203 46.4609C53.3203 51.2422 53.9531 55.8594 55.2188 60.3125C56.4375 64.7188 58.1719 68.8672 60.4219 72.7578C62.7188 76.6016 65.4609 80.1172 68.6484 83.3047C71.8359 86.4922 75.3516 89.2344 79.1953 91.5312C83.0859 93.7812 87.2344 95.5391 91.6406 96.8047C96.0938 98.0234 100.711 98.6328 105.492 98.6328C110.273 98.6328 114.891 98.0234 119.344 96.8047C123.797 95.5391 127.945 93.7812 131.789 91.5312C135.68 89.2344 139.219 86.4922 142.406 83.3047C145.594 80.1172 148.312 76.6016 150.562 72.7578C152.859 68.8672 154.617 64.7188 155.836 60.3125C157.102 55.8594 157.734 51.2422 157.734 46.4609C157.734 40.2266 156.656 34.2031 154.5 28.3906C152.391 22.5781 149.297 17.3281 145.219 12.6406L127.641 23.3281C130.828 26.2812 133.266 29.7734 134.953 33.8047C136.688 37.8359 137.555 42.0547 137.555 46.4609C137.555 50.9141 136.711 55.0859 135.023 58.9766C133.336 62.8672 131.039 66.2656 128.133 69.1719C125.273 72.0781 121.875 74.375 117.938 76.0625C114.047 77.75 109.898 78.5938 105.492 78.5938C101.086 78.5938 96.9375 77.75 93.0469 76.0625C89.2031 74.375 85.8281 72.0781 82.9219 69.1719C80.0156 66.2656 77.7188 62.8672 76.0312 58.9766C74.3438 55.0859 73.5 50.9141 73.5 46.4609C73.5 42.0547 74.3438 37.8359 76.0312 33.8047C77.7656 29.7734 80.2266 26.2812 83.4141 23.3281L65.8359 12.6406Z" fill="white"/>
</g>
<defs>
<clipPath id="clip0_5_8">
<rect width="107" height="208" fill="white" transform="matrix(0 -1 -1 0 208.5 107.5)"/>
</clipPath>
</defs>
</svg>
