<svg width="197" height="272" viewBox="0 0 197 272" fill="none" xmlns="http://www.w3.org/2000/svg">
<g filter="url(#filter0_d_2_2)">
<rect x="100.028" y="86.0256" width="52.0198" height="17.9856" transform="rotate(-90.0255 100.028 86.0256)" fill="black"/>
<rect x="100.022" y="225.503" width="55.496" height="17.9856" transform="rotate(-90.0229 100.022 225.503)" fill="black"/>
<rect x="68.0266" y="90.5034" width="56.2406" height="17.9856" transform="rotate(-90.0229 68.0266 90.5034)" fill="black"/>
<rect x="68.022" y="225.02" width="55.0128" height="17.9856" transform="rotate(-90.0229 68.022 225.02)" fill="black"/>
<path d="M132.859 170.664C128.172 174.695 122.922 177.789 117.109 179.945C111.297 182.102 105.273 183.18 99.0391 183.18C94.2578 183.18 89.6406 182.547 85.1875 181.281C80.7812 180.062 76.6328 178.328 72.7422 176.078C68.8984 173.781 65.3828 171.039 62.1953 167.852C59.0078 164.664 56.2656 161.148 53.9688 157.305C51.7188 153.414 49.9609 149.266 48.6953 144.859C47.4766 140.406 46.8672 135.789 46.8672 131.008C46.8672 126.227 47.4766 121.609 48.6953 117.156C49.9609 112.703 51.7188 108.555 53.9688 104.711C56.2656 100.82 59.0078 97.2812 62.1953 94.0938C65.3828 90.9062 68.8984 88.1875 72.7422 85.9375C76.6328 83.6406 80.7812 81.8828 85.1875 80.6641C89.6406 79.3984 94.2578 78.7656 99.0391 78.7656C105.273 78.7656 111.297 79.8438 117.109 82C122.922 84.1094 128.172 87.2031 132.859 91.2812L122.172 108.859C119.219 105.672 115.727 103.234 111.695 101.547C107.664 99.8125 103.445 98.9453 99.0391 98.9453C94.5859 98.9453 90.4141 99.7891 86.5234 101.477C82.6328 103.164 79.2344 105.461 76.3281 108.367C73.4219 111.227 71.125 114.625 69.4375 118.562C67.75 122.453 66.9062 126.602 66.9062 131.008C66.9062 135.414 67.75 139.562 69.4375 143.453C71.125 147.297 73.4219 150.672 76.3281 153.578C79.2344 156.484 82.6328 158.781 86.5234 160.469C90.4141 162.156 94.5859 163 99.0391 163C103.445 163 107.664 162.156 111.695 160.469C115.727 158.734 119.219 156.273 122.172 153.086L132.859 170.664Z" fill="black"/>
</g>
<defs>
<filter id="filter0_d_2_2" x="0" y="0" width="197" height="272" filterUnits="userSpaceOnUse" color-interpolation-filters="sRGB">
<feFlood flood-opacity="0" result="BackgroundImageFix"/>
<feColorMatrix in="SourceAlpha" type="matrix" values="0 0 0 0 0 0 0 0 0 0 0 0 0 0 0 0 0 0 127 0" result="hardAlpha"/>
<feOffset dy="4"/>
<feGaussianBlur stdDeviation="2"/>
<feComposite in2="hardAlpha" operator="out"/>
<feColorMatrix type="matrix" values="0 0 0 0 0 0 0 0 0 0 0 0 0 0 0 0 0 0 0.25 0"/>
<feBlend mode="normal" in2="BackgroundImageFix" result="effect1_dropShadow_2_2"/>
<feBlend mode="normal" in="SourceGraphic" in2="effect1_dropShadow_2_2" result="shape"/>
</filter>
</defs>
</svg>
