<svg width="2866" height="107" viewBox="0 0 2866 107" fill="none" xmlns="http://www.w3.org/2000/svg">
<g clip-path="url(#clip0_10_57)">
<rect width="52.0198" height="17.9856" transform="matrix(1 0.000445818 0.000445818 -1 616.974 44.9724)" fill="white"/>
<rect width="55.496" height="17.9856" transform="matrix(1 0.00040049 0.00040049 -1 477.497 44.9778)" fill="white"/>
<rect width="56.2406" height="17.9856" transform="matrix(1 0.00040049 0.00040049 -1 612.497 76.9734)" fill="white"/>
<rect width="55.0128" height="17.9856" transform="matrix(1 0.00040049 0.00040049 -1 477.98 76.978)" fill="white"/>
<path d="M531.836 11.6406C527.805 16.3281 524.711 21.5781 522.555 27.3906C520.398 33.2031 519.32 39.2266 519.32 45.4609C519.32 50.2422 519.953 54.8594 521.219 59.3125C522.438 63.7187 524.172 67.8672 526.422 71.7578C528.719 75.6016 531.461 79.1172 534.648 82.3047C537.836 85.4922 541.352 88.2344 545.195 90.5312C549.086 92.7812 553.234 94.5391 557.641 95.8047C562.094 97.0234 566.711 97.6328 571.492 97.6328C576.273 97.6328 580.891 97.0234 585.344 95.8047C589.797 94.5391 593.945 92.7812 597.789 90.5312C601.68 88.2344 605.219 85.4922 608.406 82.3047C611.594 79.1172 614.312 75.6016 616.562 71.7578C618.859 67.8672 620.617 63.7188 621.836 59.3125C623.102 54.8594 623.734 50.2422 623.734 45.4609C623.734 39.2266 622.656 33.2031 620.5 27.3906C618.391 21.5781 615.297 16.3281 611.219 11.6406L593.641 22.3281C596.828 25.2812 599.266 28.7734 600.953 32.8047C602.688 36.8359 603.555 41.0547 603.555 45.4609C603.555 49.9141 602.711 54.0859 601.023 57.9766C599.336 61.8672 597.039 65.2656 594.133 68.1719C591.273 71.0781 587.875 73.375 583.938 75.0625C580.047 76.75 575.898 77.5938 571.492 77.5938C567.086 77.5938 562.938 76.75 559.047 75.0625C555.203 73.375 551.828 71.0781 548.922 68.1719C546.016 65.2656 543.719 61.8672 542.031 57.9766C540.344 54.0859 539.5 49.9141 539.5 45.4609C539.5 41.0547 540.344 36.8359 542.031 32.8047C543.766 28.7734 546.227 25.2812 549.414 22.3281L531.836 11.6406Z" fill="white"/>
</g>
<g clip-path="url(#clip1_10_57)">
<rect width="52.0198" height="17.9856" transform="matrix(1 0.000445818 0.000445818 -1 928.974 44.9724)" fill="white"/>
<rect width="55.496" height="17.9856" transform="matrix(1 0.00040049 0.00040049 -1 789.497 44.9778)" fill="white"/>
<rect width="56.2406" height="17.9856" transform="matrix(1 0.00040049 0.00040049 -1 924.497 76.9734)" fill="white"/>
<rect width="55.0128" height="17.9856" transform="matrix(1 0.00040049 0.00040049 -1 789.98 76.978)" fill="white"/>
<path d="M843.836 11.6406C839.805 16.3281 836.711 21.5781 834.555 27.3906C832.398 33.2031 831.32 39.2266 831.32 45.4609C831.32 50.2422 831.953 54.8594 833.219 59.3125C834.438 63.7187 836.172 67.8672 838.422 71.7578C840.719 75.6016 843.461 79.1172 846.648 82.3047C849.836 85.4922 853.352 88.2344 857.195 90.5312C861.086 92.7812 865.234 94.5391 869.641 95.8047C874.094 97.0234 878.711 97.6328 883.492 97.6328C888.273 97.6328 892.891 97.0234 897.344 95.8047C901.797 94.5391 905.945 92.7812 909.789 90.5312C913.68 88.2344 917.219 85.4922 920.406 82.3047C923.594 79.1172 926.312 75.6016 928.562 71.7578C930.859 67.8672 932.617 63.7188 933.836 59.3125C935.102 54.8594 935.734 50.2422 935.734 45.4609C935.734 39.2266 934.656 33.2031 932.5 27.3906C930.391 21.5781 927.297 16.3281 923.219 11.6406L905.641 22.3281C908.828 25.2812 911.266 28.7734 912.953 32.8047C914.688 36.8359 915.555 41.0547 915.555 45.4609C915.555 49.9141 914.711 54.0859 913.023 57.9766C911.336 61.8672 909.039 65.2656 906.133 68.1719C903.273 71.0781 899.875 73.375 895.938 75.0625C892.047 76.75 887.898 77.5938 883.492 77.5938C879.086 77.5938 874.938 76.75 871.047 75.0625C867.203 73.375 863.828 71.0781 860.922 68.1719C858.016 65.2656 855.719 61.8672 854.031 57.9766C852.344 54.0859 851.5 49.9141 851.5 45.4609C851.5 41.0547 852.344 36.8359 854.031 32.8047C855.766 28.7734 858.227 25.2812 861.414 22.3281L843.836 11.6406Z" fill="white"/>
</g>
<g clip-path="url(#clip2_10_57)">
<rect width="52.0198" height="17.9856" transform="matrix(1 0.000445818 0.000445818 -1 773.974 44.9724)" fill="white"/>
<rect width="55.496" height="17.9856" transform="matrix(1 0.00040049 0.00040049 -1 634.497 44.9778)" fill="white"/>
<rect width="56.2406" height="17.9856" transform="matrix(1 0.00040049 0.00040049 -1 769.497 76.9734)" fill="white"/>
<rect width="55.0128" height="17.9856" transform="matrix(1 0.00040049 0.00040049 -1 634.98 76.978)" fill="white"/>
<path d="M688.836 11.6406C684.805 16.3281 681.711 21.5781 679.555 27.3906C677.398 33.2031 676.32 39.2266 676.32 45.4609C676.32 50.2422 676.953 54.8594 678.219 59.3125C679.438 63.7187 681.172 67.8672 683.422 71.7578C685.719 75.6016 688.461 79.1172 691.648 82.3047C694.836 85.4922 698.352 88.2344 702.195 90.5312C706.086 92.7812 710.234 94.5391 714.641 95.8047C719.094 97.0234 723.711 97.6328 728.492 97.6328C733.273 97.6328 737.891 97.0234 742.344 95.8047C746.797 94.5391 750.945 92.7812 754.789 90.5312C758.68 88.2344 762.219 85.4922 765.406 82.3047C768.594 79.1172 771.312 75.6016 773.562 71.7578C775.859 67.8672 777.617 63.7188 778.836 59.3125C780.102 54.8594 780.734 50.2422 780.734 45.4609C780.734 39.2266 779.656 33.2031 777.5 27.3906C775.391 21.5781 772.297 16.3281 768.219 11.6406L750.641 22.3281C753.828 25.2812 756.266 28.7734 757.953 32.8047C759.688 36.8359 760.555 41.0547 760.555 45.4609C760.555 49.9141 759.711 54.0859 758.023 57.9766C756.336 61.8672 754.039 65.2656 751.133 68.1719C748.273 71.0781 744.875 73.375 740.938 75.0625C737.047 76.75 732.898 77.5938 728.492 77.5938C724.086 77.5938 719.938 76.75 716.047 75.0625C712.203 73.375 708.828 71.0781 705.922 68.1719C703.016 65.2656 700.719 61.8672 699.031 57.9766C697.344 54.0859 696.5 49.9141 696.5 45.4609C696.5 41.0547 697.344 36.8359 699.031 32.8047C700.766 28.7734 703.227 25.2812 706.414 22.3281L688.836 11.6406Z" fill="white"/>
</g>
<g clip-path="url(#clip3_10_57)">
<rect width="52.0198" height="17.9856" transform="matrix(1 0.000445818 0.000445818 -1 149.974 44.9724)" fill="white"/>
<rect width="55.496" height="17.9856" transform="matrix(1 0.00040049 0.00040049 -1 10.4968 44.9778)" fill="white"/>
<rect width="56.2406" height="17.9856" transform="matrix(1 0.00040049 0.00040049 -1 145.497 76.9734)" fill="white"/>
<rect width="55.0128" height="17.9856" transform="matrix(1 0.00040049 0.00040049 -1 10.98 76.978)" fill="white"/>
<path d="M64.8359 11.6406C60.8047 16.3281 57.7109 21.5781 55.5547 27.3906C53.3984 33.2031 52.3203 39.2266 52.3203 45.4609C52.3203 50.2422 52.9531 54.8594 54.2188 59.3125C55.4375 63.7187 57.1719 67.8672 59.4219 71.7578C61.7188 75.6016 64.4609 79.1172 67.6484 82.3047C70.8359 85.4922 74.3516 88.2344 78.1953 90.5312C82.0859 92.7812 86.2344 94.5391 90.6406 95.8047C95.0938 97.0234 99.7109 97.6328 104.492 97.6328C109.273 97.6328 113.891 97.0234 118.344 95.8047C122.797 94.5391 126.945 92.7812 130.789 90.5312C134.68 88.2344 138.219 85.4922 141.406 82.3047C144.594 79.1172 147.312 75.6016 149.562 71.7578C151.859 67.8672 153.617 63.7188 154.836 59.3125C156.102 54.8594 156.734 50.2422 156.734 45.4609C156.734 39.2266 155.656 33.2031 153.5 27.3906C151.391 21.5781 148.297 16.3281 144.219 11.6406L126.641 22.3281C129.828 25.2812 132.266 28.7734 133.953 32.8047C135.688 36.8359 136.555 41.0547 136.555 45.4609C136.555 49.9141 135.711 54.0859 134.023 57.9766C132.336 61.8672 130.039 65.2656 127.133 68.1719C124.273 71.0781 120.875 73.375 116.938 75.0625C113.047 76.75 108.898 77.5938 104.492 77.5938C100.086 77.5938 95.9375 76.75 92.0469 75.0625C88.2031 73.375 84.8281 71.0781 81.9219 68.1719C79.0156 65.2656 76.7188 61.8672 75.0312 57.9766C73.3438 54.0859 72.5 49.9141 72.5 45.4609C72.5 41.0547 73.3438 36.8359 75.0312 32.8047C76.7656 28.7734 79.2266 25.2812 82.4141 22.3281L64.8359 11.6406Z" fill="white"/>
</g>
<g clip-path="url(#clip4_10_57)">
<rect width="52.0198" height="17.9856" transform="matrix(1 0.000445818 0.000445818 -1 461.974 44.9724)" fill="white"/>
<rect width="55.496" height="17.9856" transform="matrix(1 0.00040049 0.00040049 -1 322.497 44.9778)" fill="white"/>
<rect width="56.2406" height="17.9856" transform="matrix(1 0.00040049 0.00040049 -1 457.497 76.9734)" fill="white"/>
<rect width="55.0128" height="17.9856" transform="matrix(1 0.00040049 0.00040049 -1 322.98 76.978)" fill="white"/>
<path d="M376.836 11.6406C372.805 16.3281 369.711 21.5781 367.555 27.3906C365.398 33.2031 364.32 39.2266 364.32 45.4609C364.32 50.2422 364.953 54.8594 366.219 59.3125C367.438 63.7187 369.172 67.8672 371.422 71.7578C373.719 75.6016 376.461 79.1172 379.648 82.3047C382.836 85.4922 386.352 88.2344 390.195 90.5312C394.086 92.7812 398.234 94.5391 402.641 95.8047C407.094 97.0234 411.711 97.6328 416.492 97.6328C421.273 97.6328 425.891 97.0234 430.344 95.8047C434.797 94.5391 438.945 92.7812 442.789 90.5312C446.68 88.2344 450.219 85.4922 453.406 82.3047C456.594 79.1172 459.312 75.6016 461.562 71.7578C463.859 67.8672 465.617 63.7188 466.836 59.3125C468.102 54.8594 468.734 50.2422 468.734 45.4609C468.734 39.2266 467.656 33.2031 465.5 27.3906C463.391 21.5781 460.297 16.3281 456.219 11.6406L438.641 22.3281C441.828 25.2812 444.266 28.7734 445.953 32.8047C447.688 36.8359 448.555 41.0547 448.555 45.4609C448.555 49.9141 447.711 54.0859 446.023 57.9766C444.336 61.8672 442.039 65.2656 439.133 68.1719C436.273 71.0781 432.875 73.375 428.938 75.0625C425.047 76.75 420.898 77.5938 416.492 77.5938C412.086 77.5938 407.938 76.75 404.047 75.0625C400.203 73.375 396.828 71.0781 393.922 68.1719C391.016 65.2656 388.719 61.8672 387.031 57.9766C385.344 54.0859 384.5 49.9141 384.5 45.4609C384.5 41.0547 385.344 36.8359 387.031 32.8047C388.766 28.7734 391.227 25.2812 394.414 22.3281L376.836 11.6406Z" fill="white"/>
</g>
<g clip-path="url(#clip5_10_57)">
<rect width="52.0198" height="17.9856" transform="matrix(1 0.000445818 0.000445818 -1 306.974 44.9724)" fill="white"/>
<rect width="55.496" height="17.9856" transform="matrix(1 0.00040049 0.00040049 -1 167.497 44.9778)" fill="white"/>
<rect width="56.2406" height="17.9856" transform="matrix(1 0.00040049 0.00040049 -1 302.497 76.9734)" fill="white"/>
<rect width="55.0128" height="17.9856" transform="matrix(1 0.00040049 0.00040049 -1 167.98 76.978)" fill="white"/>
<path d="M221.836 11.6406C217.805 16.3281 214.711 21.5781 212.555 27.3906C210.398 33.2031 209.32 39.2266 209.32 45.4609C209.32 50.2422 209.953 54.8594 211.219 59.3125C212.438 63.7187 214.172 67.8672 216.422 71.7578C218.719 75.6016 221.461 79.1172 224.648 82.3047C227.836 85.4922 231.352 88.2344 235.195 90.5312C239.086 92.7812 243.234 94.5391 247.641 95.8047C252.094 97.0234 256.711 97.6328 261.492 97.6328C266.273 97.6328 270.891 97.0234 275.344 95.8047C279.797 94.5391 283.945 92.7812 287.789 90.5312C291.68 88.2344 295.219 85.4922 298.406 82.3047C301.594 79.1172 304.312 75.6016 306.562 71.7578C308.859 67.8672 310.617 63.7188 311.836 59.3125C313.102 54.8594 313.734 50.2422 313.734 45.4609C313.734 39.2266 312.656 33.2031 310.5 27.3906C308.391 21.5781 305.297 16.3281 301.219 11.6406L283.641 22.3281C286.828 25.2812 289.266 28.7734 290.953 32.8047C292.688 36.8359 293.555 41.0547 293.555 45.4609C293.555 49.9141 292.711 54.0859 291.023 57.9766C289.336 61.8672 287.039 65.2656 284.133 68.1719C281.273 71.0781 277.875 73.375 273.938 75.0625C270.047 76.75 265.898 77.5938 261.492 77.5938C257.086 77.5938 252.938 76.75 249.047 75.0625C245.203 73.375 241.828 71.0781 238.922 68.1719C236.016 65.2656 233.719 61.8672 232.031 57.9766C230.344 54.0859 229.5 49.9141 229.5 45.4609C229.5 41.0547 230.344 36.8359 232.031 32.8047C233.766 28.7734 236.227 25.2812 239.414 22.3281L221.836 11.6406Z" fill="white"/>
</g>
<g clip-path="url(#clip6_10_57)">
<rect width="52.0198" height="17.9856" transform="matrix(1 0.000445818 0.000445818 -1 1085.97 44.9724)" fill="white"/>
<rect width="55.496" height="17.9856" transform="matrix(1 0.00040049 0.00040049 -1 946.497 44.9778)" fill="white"/>
<rect width="56.2406" height="17.9856" transform="matrix(1 0.00040049 0.00040049 -1 1081.5 76.9734)" fill="white"/>
<rect width="55.0128" height="17.9856" transform="matrix(1 0.00040049 0.00040049 -1 946.98 76.978)" fill="white"/>
<path d="M1000.84 11.6406C996.805 16.3281 993.711 21.5781 991.555 27.3906C989.398 33.2031 988.32 39.2266 988.32 45.4609C988.32 50.2422 988.953 54.8594 990.219 59.3125C991.438 63.7187 993.172 67.8672 995.422 71.7578C997.719 75.6016 1000.46 79.1172 1003.65 82.3047C1006.84 85.4922 1010.35 88.2344 1014.2 90.5312C1018.09 92.7812 1022.23 94.5391 1026.64 95.8047C1031.09 97.0234 1035.71 97.6328 1040.49 97.6328C1045.27 97.6328 1049.89 97.0234 1054.34 95.8047C1058.8 94.5391 1062.95 92.7812 1066.79 90.5312C1070.68 88.2344 1074.22 85.4922 1077.41 82.3047C1080.59 79.1172 1083.31 75.6016 1085.56 71.7578C1087.86 67.8672 1089.62 63.7188 1090.84 59.3125C1092.1 54.8594 1092.73 50.2422 1092.73 45.4609C1092.73 39.2266 1091.66 33.2031 1089.5 27.3906C1087.39 21.5781 1084.3 16.3281 1080.22 11.6406L1062.64 22.3281C1065.83 25.2812 1068.27 28.7734 1069.95 32.8047C1071.69 36.8359 1072.55 41.0547 1072.55 45.4609C1072.55 49.9141 1071.71 54.0859 1070.02 57.9766C1068.34 61.8672 1066.04 65.2656 1063.13 68.1719C1060.27 71.0781 1056.88 73.375 1052.94 75.0625C1049.05 76.75 1044.9 77.5938 1040.49 77.5938C1036.09 77.5938 1031.94 76.75 1028.05 75.0625C1024.2 73.375 1020.83 71.0781 1017.92 68.1719C1015.02 65.2656 1012.72 61.8672 1011.03 57.9766C1009.34 54.0859 1008.5 49.9141 1008.5 45.4609C1008.5 41.0547 1009.34 36.8359 1011.03 32.8047C1012.77 28.7734 1015.23 25.2812 1018.41 22.3281L1000.84 11.6406Z" fill="white"/>
</g>
<g clip-path="url(#clip7_10_57)">
<rect width="52.0198" height="17.9856" transform="matrix(1 0.000445818 0.000445818 -1 1397.97 44.9724)" fill="white"/>
<rect width="55.496" height="17.9856" transform="matrix(1 0.00040049 0.00040049 -1 1258.5 44.9778)" fill="white"/>
<rect width="56.2406" height="17.9856" transform="matrix(1 0.00040049 0.00040049 -1 1393.5 76.9734)" fill="white"/>
<rect width="55.0128" height="17.9856" transform="matrix(1 0.00040049 0.00040049 -1 1258.98 76.978)" fill="white"/>
<path d="M1312.84 11.6406C1308.8 16.3281 1305.71 21.5781 1303.55 27.3906C1301.4 33.2031 1300.32 39.2266 1300.32 45.4609C1300.32 50.2422 1300.95 54.8594 1302.22 59.3125C1303.44 63.7187 1305.17 67.8672 1307.42 71.7578C1309.72 75.6016 1312.46 79.1172 1315.65 82.3047C1318.84 85.4922 1322.35 88.2344 1326.2 90.5312C1330.09 92.7812 1334.23 94.5391 1338.64 95.8047C1343.09 97.0234 1347.71 97.6328 1352.49 97.6328C1357.27 97.6328 1361.89 97.0234 1366.34 95.8047C1370.8 94.5391 1374.95 92.7812 1378.79 90.5312C1382.68 88.2344 1386.22 85.4922 1389.41 82.3047C1392.59 79.1172 1395.31 75.6016 1397.56 71.7578C1399.86 67.8672 1401.62 63.7188 1402.84 59.3125C1404.1 54.8594 1404.73 50.2422 1404.73 45.4609C1404.73 39.2266 1403.66 33.2031 1401.5 27.3906C1399.39 21.5781 1396.3 16.3281 1392.22 11.6406L1374.64 22.3281C1377.83 25.2812 1380.27 28.7734 1381.95 32.8047C1383.69 36.8359 1384.55 41.0547 1384.55 45.4609C1384.55 49.9141 1383.71 54.0859 1382.02 57.9766C1380.34 61.8672 1378.04 65.2656 1375.13 68.1719C1372.27 71.0781 1368.88 73.375 1364.94 75.0625C1361.05 76.75 1356.9 77.5938 1352.49 77.5938C1348.09 77.5938 1343.94 76.75 1340.05 75.0625C1336.2 73.375 1332.83 71.0781 1329.92 68.1719C1327.02 65.2656 1324.72 61.8672 1323.03 57.9766C1321.34 54.0859 1320.5 49.9141 1320.5 45.4609C1320.5 41.0547 1321.34 36.8359 1323.03 32.8047C1324.77 28.7734 1327.23 25.2812 1330.41 22.3281L1312.84 11.6406Z" fill="white"/>
</g>
<g clip-path="url(#clip8_10_57)">
<rect width="52.0198" height="17.9856" transform="matrix(1 0.000445818 0.000445818 -1 1242.97 44.9724)" fill="white"/>
<rect width="55.496" height="17.9856" transform="matrix(1 0.00040049 0.00040049 -1 1103.5 44.9778)" fill="white"/>
<rect width="56.2406" height="17.9856" transform="matrix(1 0.00040049 0.00040049 -1 1238.5 76.9734)" fill="white"/>
<rect width="55.0128" height="17.9856" transform="matrix(1 0.00040049 0.00040049 -1 1103.98 76.978)" fill="white"/>
<path d="M1157.84 11.6406C1153.8 16.3281 1150.71 21.5781 1148.55 27.3906C1146.4 33.2031 1145.32 39.2266 1145.32 45.4609C1145.32 50.2422 1145.95 54.8594 1147.22 59.3125C1148.44 63.7187 1150.17 67.8672 1152.42 71.7578C1154.72 75.6016 1157.46 79.1172 1160.65 82.3047C1163.84 85.4922 1167.35 88.2344 1171.2 90.5312C1175.09 92.7812 1179.23 94.5391 1183.64 95.8047C1188.09 97.0234 1192.71 97.6328 1197.49 97.6328C1202.27 97.6328 1206.89 97.0234 1211.34 95.8047C1215.8 94.5391 1219.95 92.7812 1223.79 90.5312C1227.68 88.2344 1231.22 85.4922 1234.41 82.3047C1237.59 79.1172 1240.31 75.6016 1242.56 71.7578C1244.86 67.8672 1246.62 63.7188 1247.84 59.3125C1249.1 54.8594 1249.73 50.2422 1249.73 45.4609C1249.73 39.2266 1248.66 33.2031 1246.5 27.3906C1244.39 21.5781 1241.3 16.3281 1237.22 11.6406L1219.64 22.3281C1222.83 25.2812 1225.27 28.7734 1226.95 32.8047C1228.69 36.8359 1229.55 41.0547 1229.55 45.4609C1229.55 49.9141 1228.71 54.0859 1227.02 57.9766C1225.34 61.8672 1223.04 65.2656 1220.13 68.1719C1217.27 71.0781 1213.88 73.375 1209.94 75.0625C1206.05 76.75 1201.9 77.5938 1197.49 77.5938C1193.09 77.5938 1188.94 76.75 1185.05 75.0625C1181.2 73.375 1177.83 71.0781 1174.92 68.1719C1172.02 65.2656 1169.72 61.8672 1168.03 57.9766C1166.34 54.0859 1165.5 49.9141 1165.5 45.4609C1165.5 41.0547 1166.34 36.8359 1168.03 32.8047C1169.77 28.7734 1172.23 25.2812 1175.41 22.3281L1157.84 11.6406Z" fill="white"/>
</g>
<g clip-path="url(#clip9_10_57)">
<rect width="52.0198" height="17.9856" transform="matrix(1 0.000445818 0.000445818 -1 2026.97 44.9724)" fill="white"/>
<rect width="55.496" height="17.9856" transform="matrix(1 0.00040049 0.00040049 -1 1887.5 44.9778)" fill="white"/>
<rect width="56.2406" height="17.9856" transform="matrix(1 0.00040049 0.00040049 -1 2022.5 76.9734)" fill="white"/>
<rect width="55.0128" height="17.9856" transform="matrix(1 0.00040049 0.00040049 -1 1887.98 76.978)" fill="white"/>
<path d="M1941.84 11.6406C1937.8 16.3281 1934.71 21.5781 1932.55 27.3906C1930.4 33.2031 1929.32 39.2266 1929.32 45.4609C1929.32 50.2422 1929.95 54.8594 1931.22 59.3125C1932.44 63.7187 1934.17 67.8672 1936.42 71.7578C1938.72 75.6016 1941.46 79.1172 1944.65 82.3047C1947.84 85.4922 1951.35 88.2344 1955.2 90.5312C1959.09 92.7812 1963.23 94.5391 1967.64 95.8047C1972.09 97.0234 1976.71 97.6328 1981.49 97.6328C1986.27 97.6328 1990.89 97.0234 1995.34 95.8047C1999.8 94.5391 2003.95 92.7812 2007.79 90.5312C2011.68 88.2344 2015.22 85.4922 2018.41 82.3047C2021.59 79.1172 2024.31 75.6016 2026.56 71.7578C2028.86 67.8672 2030.62 63.7188 2031.84 59.3125C2033.1 54.8594 2033.73 50.2422 2033.73 45.4609C2033.73 39.2266 2032.66 33.2031 2030.5 27.3906C2028.39 21.5781 2025.3 16.3281 2021.22 11.6406L2003.64 22.3281C2006.83 25.2812 2009.27 28.7734 2010.95 32.8047C2012.69 36.8359 2013.55 41.0547 2013.55 45.4609C2013.55 49.9141 2012.71 54.0859 2011.02 57.9766C2009.34 61.8672 2007.04 65.2656 2004.13 68.1719C2001.27 71.0781 1997.88 73.375 1993.94 75.0625C1990.05 76.75 1985.9 77.5938 1981.49 77.5938C1977.09 77.5938 1972.94 76.75 1969.05 75.0625C1965.2 73.375 1961.83 71.0781 1958.92 68.1719C1956.02 65.2656 1953.72 61.8672 1952.03 57.9766C1950.34 54.0859 1949.5 49.9141 1949.5 45.4609C1949.5 41.0547 1950.34 36.8359 1952.03 32.8047C1953.77 28.7734 1956.23 25.2812 1959.41 22.3281L1941.84 11.6406Z" fill="white"/>
</g>
<g clip-path="url(#clip10_10_57)">
<rect width="52.0198" height="17.9856" transform="matrix(1 0.000445818 0.000445818 -1 2338.97 44.9724)" fill="white"/>
<rect width="55.496" height="17.9856" transform="matrix(1 0.00040049 0.00040049 -1 2199.5 44.9778)" fill="white"/>
<rect width="56.2406" height="17.9856" transform="matrix(1 0.00040049 0.00040049 -1 2334.5 76.9734)" fill="white"/>
<rect width="55.0128" height="17.9856" transform="matrix(1 0.00040049 0.00040049 -1 2199.98 76.978)" fill="white"/>
<path d="M2253.84 11.6406C2249.8 16.3281 2246.71 21.5781 2244.55 27.3906C2242.4 33.2031 2241.32 39.2266 2241.32 45.4609C2241.32 50.2422 2241.95 54.8594 2243.22 59.3125C2244.44 63.7187 2246.17 67.8672 2248.42 71.7578C2250.72 75.6016 2253.46 79.1172 2256.65 82.3047C2259.84 85.4922 2263.35 88.2344 2267.2 90.5312C2271.09 92.7812 2275.23 94.5391 2279.64 95.8047C2284.09 97.0234 2288.71 97.6328 2293.49 97.6328C2298.27 97.6328 2302.89 97.0234 2307.34 95.8047C2311.8 94.5391 2315.95 92.7812 2319.79 90.5312C2323.68 88.2344 2327.22 85.4922 2330.41 82.3047C2333.59 79.1172 2336.31 75.6016 2338.56 71.7578C2340.86 67.8672 2342.62 63.7188 2343.84 59.3125C2345.1 54.8594 2345.73 50.2422 2345.73 45.4609C2345.73 39.2266 2344.66 33.2031 2342.5 27.3906C2340.39 21.5781 2337.3 16.3281 2333.22 11.6406L2315.64 22.3281C2318.83 25.2812 2321.27 28.7734 2322.95 32.8047C2324.69 36.8359 2325.55 41.0547 2325.55 45.4609C2325.55 49.9141 2324.71 54.0859 2323.02 57.9766C2321.34 61.8672 2319.04 65.2656 2316.13 68.1719C2313.27 71.0781 2309.88 73.375 2305.94 75.0625C2302.05 76.75 2297.9 77.5938 2293.49 77.5938C2289.09 77.5938 2284.94 76.75 2281.05 75.0625C2277.2 73.375 2273.83 71.0781 2270.92 68.1719C2268.02 65.2656 2265.72 61.8672 2264.03 57.9766C2262.34 54.0859 2261.5 49.9141 2261.5 45.4609C2261.5 41.0547 2262.34 36.8359 2264.03 32.8047C2265.77 28.7734 2268.23 25.2812 2271.41 22.3281L2253.84 11.6406Z" fill="white"/>
</g>
<g clip-path="url(#clip11_10_57)">
<rect width="52.0198" height="17.9856" transform="matrix(1 0.000445818 0.000445818 -1 2183.97 44.9724)" fill="white"/>
<rect width="55.496" height="17.9856" transform="matrix(1 0.00040049 0.00040049 -1 2044.5 44.9778)" fill="white"/>
<rect width="56.2406" height="17.9856" transform="matrix(1 0.00040049 0.00040049 -1 2179.5 76.9734)" fill="white"/>
<rect width="55.0128" height="17.9856" transform="matrix(1 0.00040049 0.00040049 -1 2044.98 76.978)" fill="white"/>
<path d="M2098.84 11.6406C2094.8 16.3281 2091.71 21.5781 2089.55 27.3906C2087.4 33.2031 2086.32 39.2266 2086.32 45.4609C2086.32 50.2422 2086.95 54.8594 2088.22 59.3125C2089.44 63.7187 2091.17 67.8672 2093.42 71.7578C2095.72 75.6016 2098.46 79.1172 2101.65 82.3047C2104.84 85.4922 2108.35 88.2344 2112.2 90.5312C2116.09 92.7812 2120.23 94.5391 2124.64 95.8047C2129.09 97.0234 2133.71 97.6328 2138.49 97.6328C2143.27 97.6328 2147.89 97.0234 2152.34 95.8047C2156.8 94.5391 2160.95 92.7812 2164.79 90.5312C2168.68 88.2344 2172.22 85.4922 2175.41 82.3047C2178.59 79.1172 2181.31 75.6016 2183.56 71.7578C2185.86 67.8672 2187.62 63.7188 2188.84 59.3125C2190.1 54.8594 2190.73 50.2422 2190.73 45.4609C2190.73 39.2266 2189.66 33.2031 2187.5 27.3906C2185.39 21.5781 2182.3 16.3281 2178.22 11.6406L2160.64 22.3281C2163.83 25.2812 2166.27 28.7734 2167.95 32.8047C2169.69 36.8359 2170.55 41.0547 2170.55 45.4609C2170.55 49.9141 2169.71 54.0859 2168.02 57.9766C2166.34 61.8672 2164.04 65.2656 2161.13 68.1719C2158.27 71.0781 2154.88 73.375 2150.94 75.0625C2147.05 76.75 2142.9 77.5938 2138.49 77.5938C2134.09 77.5938 2129.94 76.75 2126.05 75.0625C2122.2 73.375 2118.83 71.0781 2115.92 68.1719C2113.02 65.2656 2110.72 61.8672 2109.03 57.9766C2107.34 54.0859 2106.5 49.9141 2106.5 45.4609C2106.5 41.0547 2107.34 36.8359 2109.03 32.8047C2110.77 28.7734 2113.23 25.2812 2116.41 22.3281L2098.84 11.6406Z" fill="white"/>
</g>
<g clip-path="url(#clip12_10_57)">
<rect width="52.0198" height="17.9856" transform="matrix(1 0.000445818 0.000445818 -1 1559.97 44.9724)" fill="white"/>
<rect width="55.496" height="17.9856" transform="matrix(1 0.00040049 0.00040049 -1 1420.5 44.9778)" fill="white"/>
<rect width="56.2406" height="17.9856" transform="matrix(1 0.00040049 0.00040049 -1 1555.5 76.9734)" fill="white"/>
<rect width="55.0128" height="17.9856" transform="matrix(1 0.00040049 0.00040049 -1 1420.98 76.978)" fill="white"/>
<path d="M1474.84 11.6406C1470.8 16.3281 1467.71 21.5781 1465.55 27.3906C1463.4 33.2031 1462.32 39.2266 1462.32 45.4609C1462.32 50.2422 1462.95 54.8594 1464.22 59.3125C1465.44 63.7187 1467.17 67.8672 1469.42 71.7578C1471.72 75.6016 1474.46 79.1172 1477.65 82.3047C1480.84 85.4922 1484.35 88.2344 1488.2 90.5312C1492.09 92.7812 1496.23 94.5391 1500.64 95.8047C1505.09 97.0234 1509.71 97.6328 1514.49 97.6328C1519.27 97.6328 1523.89 97.0234 1528.34 95.8047C1532.8 94.5391 1536.95 92.7812 1540.79 90.5312C1544.68 88.2344 1548.22 85.4922 1551.41 82.3047C1554.59 79.1172 1557.31 75.6016 1559.56 71.7578C1561.86 67.8672 1563.62 63.7188 1564.84 59.3125C1566.1 54.8594 1566.73 50.2422 1566.73 45.4609C1566.73 39.2266 1565.66 33.2031 1563.5 27.3906C1561.39 21.5781 1558.3 16.3281 1554.22 11.6406L1536.64 22.3281C1539.83 25.2812 1542.27 28.7734 1543.95 32.8047C1545.69 36.8359 1546.55 41.0547 1546.55 45.4609C1546.55 49.9141 1545.71 54.0859 1544.02 57.9766C1542.34 61.8672 1540.04 65.2656 1537.13 68.1719C1534.27 71.0781 1530.88 73.375 1526.94 75.0625C1523.05 76.75 1518.9 77.5938 1514.49 77.5938C1510.09 77.5938 1505.94 76.75 1502.05 75.0625C1498.2 73.375 1494.83 71.0781 1491.92 68.1719C1489.02 65.2656 1486.72 61.8672 1485.03 57.9766C1483.34 54.0859 1482.5 49.9141 1482.5 45.4609C1482.5 41.0547 1483.34 36.8359 1485.03 32.8047C1486.77 28.7734 1489.23 25.2812 1492.41 22.3281L1474.84 11.6406Z" fill="white"/>
</g>
<g clip-path="url(#clip13_10_57)">
<rect width="52.0198" height="17.9856" transform="matrix(1 0.000445818 0.000445818 -1 1871.97 44.9724)" fill="white"/>
<rect width="55.496" height="17.9856" transform="matrix(1 0.00040049 0.00040049 -1 1732.5 44.9778)" fill="white"/>
<rect width="56.2406" height="17.9856" transform="matrix(1 0.00040049 0.00040049 -1 1867.5 76.9734)" fill="white"/>
<rect width="55.0128" height="17.9856" transform="matrix(1 0.00040049 0.00040049 -1 1732.98 76.978)" fill="white"/>
<path d="M1786.84 11.6406C1782.8 16.3281 1779.71 21.5781 1777.55 27.3906C1775.4 33.2031 1774.32 39.2266 1774.32 45.4609C1774.32 50.2422 1774.95 54.8594 1776.22 59.3125C1777.44 63.7187 1779.17 67.8672 1781.42 71.7578C1783.72 75.6016 1786.46 79.1172 1789.65 82.3047C1792.84 85.4922 1796.35 88.2344 1800.2 90.5312C1804.09 92.7812 1808.23 94.5391 1812.64 95.8047C1817.09 97.0234 1821.71 97.6328 1826.49 97.6328C1831.27 97.6328 1835.89 97.0234 1840.34 95.8047C1844.8 94.5391 1848.95 92.7812 1852.79 90.5312C1856.68 88.2344 1860.22 85.4922 1863.41 82.3047C1866.59 79.1172 1869.31 75.6016 1871.56 71.7578C1873.86 67.8672 1875.62 63.7188 1876.84 59.3125C1878.1 54.8594 1878.73 50.2422 1878.73 45.4609C1878.73 39.2266 1877.66 33.2031 1875.5 27.3906C1873.39 21.5781 1870.3 16.3281 1866.22 11.6406L1848.64 22.3281C1851.83 25.2812 1854.27 28.7734 1855.95 32.8047C1857.69 36.8359 1858.55 41.0547 1858.55 45.4609C1858.55 49.9141 1857.71 54.0859 1856.02 57.9766C1854.34 61.8672 1852.04 65.2656 1849.13 68.1719C1846.27 71.0781 1842.88 73.375 1838.94 75.0625C1835.05 76.75 1830.9 77.5938 1826.49 77.5938C1822.09 77.5938 1817.94 76.75 1814.05 75.0625C1810.2 73.375 1806.83 71.0781 1803.92 68.1719C1801.02 65.2656 1798.72 61.8672 1797.03 57.9766C1795.34 54.0859 1794.5 49.9141 1794.5 45.4609C1794.5 41.0547 1795.34 36.8359 1797.03 32.8047C1798.77 28.7734 1801.23 25.2812 1804.41 22.3281L1786.84 11.6406Z" fill="white"/>
</g>
<g clip-path="url(#clip14_10_57)">
<rect width="52.0198" height="17.9856" transform="matrix(1 0.000445818 0.000445818 -1 1716.97 44.9724)" fill="white"/>
<rect width="55.496" height="17.9856" transform="matrix(1 0.00040049 0.00040049 -1 1577.5 44.9778)" fill="white"/>
<rect width="56.2406" height="17.9856" transform="matrix(1 0.00040049 0.00040049 -1 1712.5 76.9734)" fill="white"/>
<rect width="55.0128" height="17.9856" transform="matrix(1 0.00040049 0.00040049 -1 1577.98 76.978)" fill="white"/>
<path d="M1631.84 11.6406C1627.8 16.3281 1624.71 21.5781 1622.55 27.3906C1620.4 33.2031 1619.32 39.2266 1619.32 45.4609C1619.32 50.2422 1619.95 54.8594 1621.22 59.3125C1622.44 63.7187 1624.17 67.8672 1626.42 71.7578C1628.72 75.6016 1631.46 79.1172 1634.65 82.3047C1637.84 85.4922 1641.35 88.2344 1645.2 90.5312C1649.09 92.7812 1653.23 94.5391 1657.64 95.8047C1662.09 97.0234 1666.71 97.6328 1671.49 97.6328C1676.27 97.6328 1680.89 97.0234 1685.34 95.8047C1689.8 94.5391 1693.95 92.7812 1697.79 90.5312C1701.68 88.2344 1705.22 85.4922 1708.41 82.3047C1711.59 79.1172 1714.31 75.6016 1716.56 71.7578C1718.86 67.8672 1720.62 63.7188 1721.84 59.3125C1723.1 54.8594 1723.73 50.2422 1723.73 45.4609C1723.73 39.2266 1722.66 33.2031 1720.5 27.3906C1718.39 21.5781 1715.3 16.3281 1711.22 11.6406L1693.64 22.3281C1696.83 25.2812 1699.27 28.7734 1700.95 32.8047C1702.69 36.8359 1703.55 41.0547 1703.55 45.4609C1703.55 49.9141 1702.71 54.0859 1701.02 57.9766C1699.34 61.8672 1697.04 65.2656 1694.13 68.1719C1691.27 71.0781 1687.88 73.375 1683.94 75.0625C1680.05 76.75 1675.9 77.5938 1671.49 77.5938C1667.09 77.5938 1662.94 76.75 1659.05 75.0625C1655.2 73.375 1651.83 71.0781 1648.92 68.1719C1646.02 65.2656 1643.72 61.8672 1642.03 57.9766C1640.34 54.0859 1639.5 49.9141 1639.5 45.4609C1639.5 41.0547 1640.34 36.8359 1642.03 32.8047C1643.77 28.7734 1646.23 25.2812 1649.41 22.3281L1631.84 11.6406Z" fill="white"/>
</g>
<g clip-path="url(#clip15_10_57)">
<rect width="52.0198" height="17.9856" transform="matrix(1 0.000445818 0.000445818 -1 2495.97 44.9724)" fill="white"/>
<rect width="55.496" height="17.9856" transform="matrix(1 0.00040049 0.00040049 -1 2356.5 44.9778)" fill="white"/>
<rect width="56.2406" height="17.9856" transform="matrix(1 0.00040049 0.00040049 -1 2491.5 76.9734)" fill="white"/>
<rect width="55.0128" height="17.9856" transform="matrix(1 0.00040049 0.00040049 -1 2356.98 76.978)" fill="white"/>
<path d="M2410.84 11.6406C2406.8 16.3281 2403.71 21.5781 2401.55 27.3906C2399.4 33.2031 2398.32 39.2266 2398.32 45.4609C2398.32 50.2422 2398.95 54.8594 2400.22 59.3125C2401.44 63.7187 2403.17 67.8672 2405.42 71.7578C2407.72 75.6016 2410.46 79.1172 2413.65 82.3047C2416.84 85.4922 2420.35 88.2344 2424.2 90.5312C2428.09 92.7812 2432.23 94.5391 2436.64 95.8047C2441.09 97.0234 2445.71 97.6328 2450.49 97.6328C2455.27 97.6328 2459.89 97.0234 2464.34 95.8047C2468.8 94.5391 2472.95 92.7812 2476.79 90.5312C2480.68 88.2344 2484.22 85.4922 2487.41 82.3047C2490.59 79.1172 2493.31 75.6016 2495.56 71.7578C2497.86 67.8672 2499.62 63.7188 2500.84 59.3125C2502.1 54.8594 2502.73 50.2422 2502.73 45.4609C2502.73 39.2266 2501.66 33.2031 2499.5 27.3906C2497.39 21.5781 2494.3 16.3281 2490.22 11.6406L2472.64 22.3281C2475.83 25.2812 2478.27 28.7734 2479.95 32.8047C2481.69 36.8359 2482.55 41.0547 2482.55 45.4609C2482.55 49.9141 2481.71 54.0859 2480.02 57.9766C2478.34 61.8672 2476.04 65.2656 2473.13 68.1719C2470.27 71.0781 2466.88 73.375 2462.94 75.0625C2459.05 76.75 2454.9 77.5938 2450.49 77.5938C2446.09 77.5938 2441.94 76.75 2438.05 75.0625C2434.2 73.375 2430.83 71.0781 2427.92 68.1719C2425.02 65.2656 2422.72 61.8672 2421.03 57.9766C2419.34 54.0859 2418.5 49.9141 2418.5 45.4609C2418.5 41.0547 2419.34 36.8359 2421.03 32.8047C2422.77 28.7734 2425.23 25.2812 2428.41 22.3281L2410.84 11.6406Z" fill="white"/>
</g>
<g clip-path="url(#clip16_10_57)">
<rect width="52.0198" height="17.9856" transform="matrix(1 0.000445818 0.000445818 -1 2807.97 44.9724)" fill="white"/>
<rect width="55.496" height="17.9856" transform="matrix(1 0.00040049 0.00040049 -1 2668.5 44.9778)" fill="white"/>
<rect width="56.2406" height="17.9856" transform="matrix(1 0.00040049 0.00040049 -1 2803.5 76.9734)" fill="white"/>
<rect width="55.0128" height="17.9856" transform="matrix(1 0.00040049 0.00040049 -1 2668.98 76.978)" fill="white"/>
<path d="M2722.84 11.6406C2718.8 16.3281 2715.71 21.5781 2713.55 27.3906C2711.4 33.2031 2710.32 39.2266 2710.32 45.4609C2710.32 50.2422 2710.95 54.8594 2712.22 59.3125C2713.44 63.7187 2715.17 67.8672 2717.42 71.7578C2719.72 75.6016 2722.46 79.1172 2725.65 82.3047C2728.84 85.4922 2732.35 88.2344 2736.2 90.5312C2740.09 92.7812 2744.23 94.5391 2748.64 95.8047C2753.09 97.0234 2757.71 97.6328 2762.49 97.6328C2767.27 97.6328 2771.89 97.0234 2776.34 95.8047C2780.8 94.5391 2784.95 92.7812 2788.79 90.5312C2792.68 88.2344 2796.22 85.4922 2799.41 82.3047C2802.59 79.1172 2805.31 75.6016 2807.56 71.7578C2809.86 67.8672 2811.62 63.7188 2812.84 59.3125C2814.1 54.8594 2814.73 50.2422 2814.73 45.4609C2814.73 39.2266 2813.66 33.2031 2811.5 27.3906C2809.39 21.5781 2806.3 16.3281 2802.22 11.6406L2784.64 22.3281C2787.83 25.2812 2790.27 28.7734 2791.95 32.8047C2793.69 36.8359 2794.55 41.0547 2794.55 45.4609C2794.55 49.9141 2793.71 54.0859 2792.02 57.9766C2790.34 61.8672 2788.04 65.2656 2785.13 68.1719C2782.27 71.0781 2778.88 73.375 2774.94 75.0625C2771.05 76.75 2766.9 77.5938 2762.49 77.5938C2758.09 77.5938 2753.94 76.75 2750.05 75.0625C2746.2 73.375 2742.83 71.0781 2739.92 68.1719C2737.02 65.2656 2734.72 61.8672 2733.03 57.9766C2731.34 54.0859 2730.5 49.9141 2730.5 45.4609C2730.5 41.0547 2731.34 36.8359 2733.03 32.8047C2734.77 28.7734 2737.23 25.2812 2740.41 22.3281L2722.84 11.6406Z" fill="white"/>
</g>
<g clip-path="url(#clip17_10_57)">
<rect width="52.0198" height="17.9856" transform="matrix(1 0.000445818 0.000445818 -1 2652.97 44.9724)" fill="white"/>
<rect width="55.496" height="17.9856" transform="matrix(1 0.00040049 0.00040049 -1 2513.5 44.9778)" fill="white"/>
<rect width="56.2406" height="17.9856" transform="matrix(1 0.00040049 0.00040049 -1 2648.5 76.9734)" fill="white"/>
<rect width="55.0128" height="17.9856" transform="matrix(1 0.00040049 0.00040049 -1 2513.98 76.978)" fill="white"/>
<path d="M2567.84 11.6406C2563.8 16.3281 2560.71 21.5781 2558.55 27.3906C2556.4 33.2031 2555.32 39.2266 2555.32 45.4609C2555.32 50.2422 2555.95 54.8594 2557.22 59.3125C2558.44 63.7187 2560.17 67.8672 2562.42 71.7578C2564.72 75.6016 2567.46 79.1172 2570.65 82.3047C2573.84 85.4922 2577.35 88.2344 2581.2 90.5312C2585.09 92.7812 2589.23 94.5391 2593.64 95.8047C2598.09 97.0234 2602.71 97.6328 2607.49 97.6328C2612.27 97.6328 2616.89 97.0234 2621.34 95.8047C2625.8 94.5391 2629.95 92.7812 2633.79 90.5312C2637.68 88.2344 2641.22 85.4922 2644.41 82.3047C2647.59 79.1172 2650.31 75.6016 2652.56 71.7578C2654.86 67.8672 2656.62 63.7188 2657.84 59.3125C2659.1 54.8594 2659.73 50.2422 2659.73 45.4609C2659.73 39.2266 2658.66 33.2031 2656.5 27.3906C2654.39 21.5781 2651.3 16.3281 2647.22 11.6406L2629.64 22.3281C2632.83 25.2812 2635.27 28.7734 2636.95 32.8047C2638.69 36.8359 2639.55 41.0547 2639.55 45.4609C2639.55 49.9141 2638.71 54.0859 2637.02 57.9766C2635.34 61.8672 2633.04 65.2656 2630.13 68.1719C2627.27 71.0781 2623.88 73.375 2619.94 75.0625C2616.05 76.75 2611.9 77.5938 2607.49 77.5938C2603.09 77.5938 2598.94 76.75 2595.05 75.0625C2591.2 73.375 2587.83 71.0781 2584.92 68.1719C2582.02 65.2656 2579.72 61.8672 2578.03 57.9766C2576.34 54.0859 2575.5 49.9141 2575.5 45.4609C2575.5 41.0547 2576.34 36.8359 2578.03 32.8047C2579.77 28.7734 2582.23 25.2812 2585.41 22.3281L2567.84 11.6406Z" fill="white"/>
</g>
<defs>
<clipPath id="clip0_10_57">
<rect width="107" height="208" fill="white" transform="matrix(0 -1 -1 0 675 107)"/>
</clipPath>
<clipPath id="clip1_10_57">
<rect width="107" height="208" fill="white" transform="matrix(0 -1 -1 0 987 107)"/>
</clipPath>
<clipPath id="clip2_10_57">
<rect width="107" height="208" fill="white" transform="matrix(0 -1 -1 0 832 107)"/>
</clipPath>
<clipPath id="clip3_10_57">
<rect width="107" height="208" fill="white" transform="matrix(0 -1 -1 0 208 107)"/>
</clipPath>
<clipPath id="clip4_10_57">
<rect width="107" height="208" fill="white" transform="matrix(0 -1 -1 0 520 107)"/>
</clipPath>
<clipPath id="clip5_10_57">
<rect width="107" height="208" fill="white" transform="matrix(0 -1 -1 0 365 107)"/>
</clipPath>
<clipPath id="clip6_10_57">
<rect width="107" height="208" fill="white" transform="matrix(0 -1 -1 0 1144 107)"/>
</clipPath>
<clipPath id="clip7_10_57">
<rect width="107" height="208" fill="white" transform="matrix(0 -1 -1 0 1456 107)"/>
</clipPath>
<clipPath id="clip8_10_57">
<rect width="107" height="208" fill="white" transform="matrix(0 -1 -1 0 1301 107)"/>
</clipPath>
<clipPath id="clip9_10_57">
<rect width="107" height="208" fill="white" transform="matrix(0 -1 -1 0 2085 107)"/>
</clipPath>
<clipPath id="clip10_10_57">
<rect width="107" height="208" fill="white" transform="matrix(0 -1 -1 0 2397 107)"/>
</clipPath>
<clipPath id="clip11_10_57">
<rect width="107" height="208" fill="white" transform="matrix(0 -1 -1 0 2242 107)"/>
</clipPath>
<clipPath id="clip12_10_57">
<rect width="107" height="208" fill="white" transform="matrix(0 -1 -1 0 1618 107)"/>
</clipPath>
<clipPath id="clip13_10_57">
<rect width="107" height="208" fill="white" transform="matrix(0 -1 -1 0 1930 107)"/>
</clipPath>
<clipPath id="clip14_10_57">
<rect width="107" height="208" fill="white" transform="matrix(0 -1 -1 0 1775 107)"/>
</clipPath>
<clipPath id="clip15_10_57">
<rect width="107" height="208" fill="white" transform="matrix(0 -1 -1 0 2554 107)"/>
</clipPath>
<clipPath id="clip16_10_57">
<rect width="107" height="208" fill="white" transform="matrix(0 -1 -1 0 2866 107)"/>
</clipPath>
<clipPath id="clip17_10_57">
<rect width="107" height="208" fill="white" transform="matrix(0 -1 -1 0 2711 107)"/>
</clipPath>
</defs>
</svg>
